<?xml version="1.0" encoding="UTF-8" standalone="no"?>
<!DOCTYPE svg PUBLIC "-//W3C//DTD SVG 1.1//EN"
 "http://www.w3.org/Graphics/SVG/1.1/DTD/svg11.dtd">
<!-- Generated by graphviz version 12.2.1 (20241206.2353)
 -->
<!-- Title: extractors Pages: 1 -->
<svg width="396pt" height="517pt"
 viewBox="0.00 0.00 396.25 517.38" xmlns="http://www.w3.org/2000/svg" xmlns:xlink="http://www.w3.org/1999/xlink">
<g id="graph0" class="graph" transform="scale(1 1) rotate(0) translate(4 513.38)">
<title>extractors</title>
<polygon fill="white" stroke="none" points="-4,4 -4,-513.38 392.25,-513.38 392.25,4 -4,4"/>
<!-- db -->
<g id="node1" class="node">
<title>db</title>
<path fill="none" stroke="black" d="M109,-268.66C109,-270.76 91.97,-272.47 71,-272.47 50.03,-272.47 33,-270.76 33,-268.66 33,-268.66 33,-234.34 33,-234.34 33,-232.24 50.03,-230.53 71,-230.53 91.97,-230.53 109,-232.24 109,-234.34 109,-234.34 109,-268.66 109,-268.66"/>
<path fill="none" stroke="black" d="M109,-268.66C109,-266.55 91.97,-264.84 71,-264.84 50.03,-264.84 33,-266.55 33,-268.66"/>
<text text-anchor="middle" x="71" y="-253.25" font-family="Helvetica,sans-Serif" font-size="10.00">scip_symbols</text>
<text text-anchor="middle" x="71" y="-242" font-family="Helvetica,sans-Serif" font-size="10.00">scip_edges</text>
</g>
<!-- cat -->
<g id="node2" class="node">
<title>cat</title>
<polygon fill="none" stroke="black" points="334.62,-509.38 231.62,-509.38 231.62,-467.62 334.62,-467.62 334.62,-509.38"/>
<text text-anchor="middle" x="283.12" y="-495.88" font-family="Helvetica,sans-Serif" font-size="10.00">scip_extractor.py</text>
<text text-anchor="middle" x="283.12" y="-484.62" font-family="Helvetica,sans-Serif" font-size="10.00">catalog ElementInfo</text>
<text text-anchor="middle" x="283.12" y="-473.38" font-family="Helvetica,sans-Serif" font-size="10.00">(restored verbatim)</text>
</g>
<!-- db&#45;&gt;cat -->
<g id="edge1" class="edge">
<title>db&#45;&gt;cat</title>
<path fill="none" stroke="black" d="M109.37,-260.06C121.4,-264.56 133.74,-271.35 142,-281.5 192.68,-343.76 123.55,-399.51 178,-458.5 189.09,-470.52 204.66,-477.83 220.38,-482.25"/>
<polygon fill="black" stroke="black" points="219.23,-485.57 229.77,-484.52 220.87,-478.77 219.23,-485.57"/>
</g>
<!-- lit -->
<g id="node3" class="node">
<title>lit</title>
<polygon fill="none" stroke="black" points="357.12,-449.5 209.12,-449.5 209.12,-413.5 357.12,-413.5 357.12,-449.5"/>
<text text-anchor="middle" x="283.12" y="-433.25" font-family="Helvetica,sans-Serif" font-size="10.00">scip_string_literal_extractor.py</text>
<text text-anchor="middle" x="283.12" y="-422" font-family="Helvetica,sans-Serif" font-size="10.00">scip_string_literal_index.py</text>
</g>
<!-- db&#45;&gt;lit -->
<g id="edge2" class="edge">
<title>db&#45;&gt;lit</title>
<path fill="none" stroke="black" d="M109.26,-260.6C121.13,-265.14 133.4,-271.8 142,-281.5 179.79,-324.12 137.1,-364.85 178,-404.5 183.9,-410.22 190.85,-414.77 198.31,-418.39"/>
<polygon fill="black" stroke="black" points="196.78,-421.54 207.35,-422.17 199.48,-415.08 196.78,-421.54"/>
</g>
<!-- cfg -->
<g id="node4" class="node">
<title>cfg</title>
<polygon fill="none" stroke="black" points="359.75,-395 206.5,-395 206.5,-342 359.75,-342 359.75,-395"/>
<text text-anchor="middle" x="283.12" y="-381.5" font-family="Helvetica,sans-Serif" font-size="10.00">scip_config_scanners.py</text>
<text text-anchor="middle" x="283.12" y="-370.25" font-family="Helvetica,sans-Serif" font-size="10.00">scip_config_value_extractor.py</text>
<text text-anchor="middle" x="283.12" y="-359" font-family="Helvetica,sans-Serif" font-size="10.00">scip_config_usage_extractor.py</text>
<text text-anchor="middle" x="283.12" y="-347.75" font-family="Helvetica,sans-Serif" font-size="10.00">scip_config_index.py</text>
</g>
<!-- db&#45;&gt;cfg -->
<g id="edge3" class="edge">
<title>db&#45;&gt;cfg</title>
<path fill="none" stroke="black" d="M109.37,-263.09C120.59,-267.69 132.44,-273.76 142,-281.5 163.56,-298.96 155.82,-315.83 178,-332.5 183.57,-336.69 189.66,-340.41 196.01,-343.72"/>
<polygon fill="black" stroke="black" points="194.28,-346.77 204.81,-347.93 197.3,-340.45 194.28,-346.77"/>
</g>
<!-- http -->
<g id="node5" class="node">
<title>http</title>
<polygon fill="none" stroke="black" points="339.88,-323.5 226.38,-323.5 226.38,-287.5 339.88,-287.5 339.88,-323.5"/>
<text text-anchor="middle" x="283.12" y="-307.25" font-family="Helvetica,sans-Serif" font-size="10.00">http clients</text>
<text text-anchor="middle" x="283.12" y="-296" font-family="Helvetica,sans-Serif" font-size="10.00">python · js · go · scala</text>
</g>
<!-- db&#45;&gt;http -->
<g id="edge4" class="edge">
<title>db&#45;&gt;http</title>
<path fill="none" stroke="black" d="M109.08,-261.03C138.32,-268.54 179.86,-279.22 214.92,-288.23"/>
<polygon fill="black" stroke="black" points="214.02,-291.61 224.58,-290.71 215.77,-284.83 214.02,-291.61"/>
</g>
<!-- rt -->
<g id="node6" class="node">
<title>rt</title>
<polygon fill="none" stroke="black" points="388.25,-269.5 178,-269.5 178,-233.5 388.25,-233.5 388.25,-269.5"/>
<text text-anchor="middle" x="283.12" y="-253.25" font-family="Helvetica,sans-Serif" font-size="10.00">routes</text>
<text text-anchor="middle" x="283.12" y="-242" font-family="Helvetica,sans-Serif" font-size="10.00">python_web · express · go_route · akka_http</text>
</g>
<!-- db&#45;&gt;rt -->
<g id="edge5" class="edge">
<title>db&#45;&gt;rt</title>
<path fill="none" stroke="black" d="M109.08,-251.5C125.46,-251.5 145.7,-251.5 166.5,-251.5"/>
<polygon fill="black" stroke="black" points="166.24,-255 176.24,-251.5 166.24,-248 166.24,-255"/>
</g>
<!-- url -->
<g id="node7" class="node">
<title>url</title>
<polygon fill="none" stroke="black" points="350.38,-215.5 215.88,-215.5 215.88,-179.5 350.38,-179.5 350.38,-215.5"/>
<text text-anchor="middle" x="283.12" y="-199.25" font-family="Helvetica,sans-Serif" font-size="10.00">scip_literal_url_extractor.py</text>
<text text-anchor="middle" x="283.12" y="-188" font-family="Helvetica,sans-Serif" font-size="10.00">scip_url_resolver.py</text>
</g>
<!-- db&#45;&gt;url -->
<g id="edge6" class="edge">
<title>db&#45;&gt;url</title>
<path fill="none" stroke="black" d="M109.08,-241.97C135.55,-235.17 172.09,-225.78 204.78,-217.38"/>
<polygon fill="black" stroke="black" points="205.42,-220.83 214.24,-214.95 203.68,-214.05 205.42,-220.83"/>
</g>
<!-- proc -->
<g id="node8" class="node">
<title>proc</title>
<polygon fill="none" stroke="black" points="348.12,-161.5 218.12,-161.5 218.12,-125.5 348.12,-125.5 348.12,-161.5"/>
<text text-anchor="middle" x="283.12" y="-139.62" font-family="Helvetica,sans-Serif" font-size="10.00">scip_process_extractor.py</text>
</g>
<!-- db&#45;&gt;proc -->
<g id="edge7" class="edge">
<title>db&#45;&gt;proc</title>
<path fill="none" stroke="black" d="M93.8,-230.61C114.09,-212.25 145.93,-186.11 178,-170.5 187.06,-166.09 196.93,-162.34 206.87,-159.16"/>
<polygon fill="black" stroke="black" points="207.61,-162.59 216.19,-156.37 205.6,-155.89 207.61,-162.59"/>
</g>
<!-- tst -->
<g id="node9" class="node">
<title>tst</title>
<polygon fill="none" stroke="black" points="353.38,-107.5 212.88,-107.5 212.88,-71.5 353.38,-71.5 353.38,-107.5"/>
<text text-anchor="middle" x="283.12" y="-85.62" font-family="Helvetica,sans-Serif" font-size="10.00">scip_scala_test_extractor.py</text>
</g>
<!-- db&#45;&gt;tst -->
<g id="edge8" class="edge">
<title>db&#45;&gt;tst</title>
<path fill="none" stroke="black" d="M82.89,-230.13C99.33,-200.07 133.37,-145.71 178,-116.5 185.31,-111.72 193.42,-107.78 201.8,-104.54"/>
<polygon fill="black" stroke="black" points="202.79,-107.9 211.08,-101.3 200.49,-101.29 202.79,-107.9"/>
</g>
<!-- res -->
<g id="node10" class="node">
<title>res</title>
<polygon fill="none" stroke="black" points="351.12,-53 215.12,-53 215.12,0 351.12,0 351.12,-53"/>
<text text-anchor="middle" x="283.12" y="-39.5" font-family="Helvetica,sans-Serif" font-size="10.00">scip_resolution.py</text>
<text text-anchor="middle" x="283.12" y="-28.25" font-family="Helvetica,sans-Serif" font-size="10.00">scip_sink_registry.py</text>
<text text-anchor="middle" x="283.12" y="-17" font-family="Helvetica,sans-Serif" font-size="10.00">scip_definition_inspector.py</text>
<text text-anchor="middle" x="283.12" y="-5.75" font-family="Helvetica,sans-Serif" font-size="10.00">scip_go_ast.py</text>
</g>
<!-- db&#45;&gt;res -->
<g id="edge9" class="edge">
<title>db&#45;&gt;res</title>
<path fill="none" stroke="black" d="M78.37,-230.05C91,-191.11 122.87,-108.59 178,-62.5 185.81,-55.97 194.88,-50.6 204.34,-46.18"/>
<polygon fill="black" stroke="black" points="205.5,-49.5 213.33,-42.36 202.76,-43.05 205.5,-49.5"/>
</g>
<!-- tomb -->
<g id="node11" class="node">
<title>tomb</title>
<polygon fill="none" stroke="#8a2f2f" points="136,-332.38 0,-332.38 0,-290.62 142,-290.62 142,-326.38 136,-332.38"/>
<polyline fill="none" stroke="#8a2f2f" points="136,-332.38 136,-326.38"/>
<polyline fill="none" stroke="#8a2f2f" points="142,-326.38 136,-326.38"/>
<text text-anchor="middle" x="71" y="-318.88" font-family="Helvetica,sans-Serif" font-size="10.00" fill="#8a2f2f">scip_process_invocations.py</text>
<text text-anchor="middle" x="71" y="-307.62" font-family="Helvetica,sans-Serif" font-size="10.00" fill="#8a2f2f">scip_resolution_traversal.py</text>
<text text-anchor="middle" x="71" y="-296.38" font-family="Helvetica,sans-Serif" font-size="10.00" fill="#8a2f2f">TOMBSTONES — &#39;Moved&#39;</text>
</g>
</g>
</svg>
